<?xml version="1.0" encoding="UTF-8"?>
<svg id="Layer_1" data-name="Layer 1" xmlns="http://www.w3.org/2000/svg" viewBox="0 0 1080 1080">
  <defs>
    <style>
      .cls-1, .cls-2 {
        stroke-width: 0px;
      }

      .cls-2 {
        fill: #231f20;
      }
    </style>
  </defs>
  <path class="cls-2" d="m248.44,423.74v50.81c0,5.66,4.59,10.26,10.27,10.26h50.8c5.66,0,10.26,4.59,10.26,10.26v157.81c0,5.66,4.59,10.26,10.27,10.26h50.8c5.66,0,10.26-4.59,10.26-10.26v-157.81c0-5.66-4.59-10.26-10.26-10.26h-50.8c-5.68,0-10.27-4.59-10.27-10.26v-50.81c0-5.66-4.59-10.26-10.26-10.26h-50.8c-5.68,0-10.27,4.59-10.27,10.26Z"/>
  <g>
    <rect class="cls-1" x="441.51" y="463.47" width="35.83" height="199.96"/>
    <path class="cls-1" d="m593.72,538.22h-1.48c-1.7-3.58-4.23-7.43-7.58-11.54-3.35-4.11-7.87-7.67-13.55-10.67-5.68-3-13-4.5-21.94-4.5-11.45,0-21.85,2.95-31.2,8.86-9.35,5.9-16.78,14.61-22.28,26.1-5.5,11.5-8.25,25.57-8.25,42.21s2.68,30.46,8.05,42c5.37,11.54,12.72,20.33,22.08,26.37,9.35,6.04,19.93,9.06,31.74,9.06,8.68,0,15.84-1.46,21.47-4.36,5.64-2.91,10.18-6.42,13.62-10.53,3.44-4.11,6.06-7.96,7.85-11.54h2.15v23.75h34.22v-199.96h-34.89v74.75Zm-3.49,75.96c-2.77,7.34-6.8,13.04-12.08,17.11-5.28,4.07-11.72,6.11-19.32,6.11s-14.34-2.12-19.66-6.37c-5.32-4.25-9.33-10.07-12.01-17.45-2.68-7.38-4.03-15.72-4.03-25.03s1.34-17.6,4.03-24.89c2.68-7.29,6.66-13.02,11.94-17.18,5.28-4.16,11.85-6.24,19.73-6.24s14.07,2.01,19.39,6.04c5.32,4.03,9.35,9.64,12.08,16.84,2.73,7.2,4.09,15.68,4.09,25.43s-1.39,18.3-4.16,25.63Z"/>
    <rect class="cls-1" x="643.53" y="463.47" width="34.89" height="199.96"/>
    <path class="cls-1" d="m831.56,587.21c0-13.15-1.81-24.49-5.44-34.02-3.62-9.53-8.64-17.38-15.03-23.55-6.4-6.17-13.74-10.74-22.01-13.69-8.28-2.95-16.98-4.43-26.1-4.43-14.32,0-26.77,3.29-37.38,9.86-10.6,6.58-18.79,15.68-24.56,27.31-5.77,11.63-8.66,25.19-8.66,40.66s2.93,29.26,8.79,40.8c5.86,11.54,14.23,20.49,25.1,26.84,10.87,6.35,23.86,9.53,38.99,9.53,11.18,0,21.14-1.68,29.86-5.03,8.72-3.35,15.99-8.05,21.81-14.09,5.81-6.04,9.93-13.08,12.35-21.13l-32.08-6.58c-1.52,4.21-3.8,7.76-6.84,10.67-3.04,2.91-6.64,5.1-10.8,6.58-4.16,1.48-8.79,2.21-13.89,2.21-7.7,0-14.45-1.65-20.26-4.96-5.82-3.31-10.33-8.23-13.56-14.76-2.89-5.87-4.48-12.95-4.77-21.2h104.48v-11Zm-88.04-42.88c5.37-3.62,11.9-5.44,19.59-5.44s14.11,1.79,19.26,5.37c5.14,3.58,9.01,8.57,11.61,14.96,1.85,4.56,3.03,9.65,3.56,15.23h-70.33c.47-5.64,1.8-10.86,4.03-15.63,2.82-6.04,6.91-10.87,12.28-14.49Z"/>
  </g>
</svg>